#!OML:ASF X:\für Bonn\!DataBase\2005_08_11_Bastian_Final\c3d\Bastian.ASF
:FULLY-SPECIFIED
:DEGREES
226
root 1.26079 9.26995 25.0182 -924.108 -38.5893 -888.917
lowerback 80.4404 6.4751 0.377568
upperback 18.4263 -6.63307 -3.83115
thorax 0.483341 -7.15746 -2.17711
lowerneck -24.6974 -13.2325 -7.05729
upperneck -12.4743 -18.3585 24.1073
head 3.20203 -9.97858 6.43592
rclavicle 1.27222e-013 7.91163e-014
rhumerus 8.43067 22.7062 -57.1336
rradius 57.335
rwrist -1.3701
rhand -13.1595 9.26198
rfingers 7.12502
rthumb 12.9394 -20.3168
lclavicle 1.27222e-013 7.91163e-014
lhumerus -170.014 -199.888 231.258
lradius 14.6047
lwrist 25.1114
lhand -23.6289 -1.61412
lfingers 7.12502
lthumb 2.83579 28.3468
rfemur -73.904 -27.6152 29.8352
rtibia 121.341
rfoot -26.6929 -7.12489
rtoes -9.58093
lfemur -68.9731 2.18961 -14.5472
ltibia 126.196
lfoot -27.797 -24.6912
ltoes 12.6111
227
root 1.23365 9.15055 25.0426 -924.662 -38.5214 -888.64
lowerback 80.3265 6.42006 0.571673
upperback 18.5822 -6.60628 -3.79898
thorax 0.646032 -7.17297 -2.2395
lowerneck -24.7457 -13.2426 -7.13997
upperneck -12.3709 -18.36 24.1488
head 3.25435 -9.95905 6.45309
rclavicle 1.55847e-013 -6.44062e-014
rhumerus 8.57085 22.496 -56.8533
rradius 57.0566
rwrist -1.29334
rhand -13.1257 9.41188
rfingers 7.12502
rthumb 12.9721 -20.1648
lclavicle 1.55847e-013 -6.44062e-014
lhumerus -169.851 -200.631 231.577
lradius 14.4674
lwrist 25.7269
lhand -23.682 -1.32418
lfingers 7.12502
lthumb 2.78446 28.6374
rfemur -74.3185 -28.0978 29.8488
rtibia 122.155
rfoot -26.7019 -6.92329
rtoes -9.75532
lfemur -69.394 2.43644 -14.65
ltibia 127.151
lfoot -27.8474 -24.7044
ltoes 13.3383
228
root 1.20577 9.03163 25.0677 -925.192 -38.4493 -888.394
lowerback 80.1688 6.36292 0.771506
upperback 18.761 -6.57972 -3.78482
thorax 0.826712 -7.18533 -2.32646
lowerneck -24.7714 -13.2651 -7.22114
upperneck -12.2757 -18.3766 24.2006
head 3.30456 -9.94841 6.47164
rclavicle -2.8625e-014 -4.17448e-014
rhumerus 8.72772 22.2401 -56.6277
rradius 56.7304
rwrist -1.22028
rhand -13.1186 9.59246
rfingers 7.12502
rthumb 12.9788 -19.9838
lclavicle -2.8625e-014 -4.17448e-014
lhumerus -169.69 -201.238 231.901
lradius 14.3507
lwrist 26.4945
lhand -23.8686 -0.986672
lfingers 7.12502
lthumb 2.60422 28.9772
rfemur -74.7561 -28.6103 29.8594
rtibia 122.959
rfoot -26.6969 -6.74341
rtoes -10.0742
lfemur -69.8262 2.6797 -14.7929
ltibia 128.1
lfoot -27.9257 -24.6891
ltoes 13.838
229
root 1.17606 8.91478 25.0923 -925.78 -38.3473 -888.095
lowerback 79.9894 6.30846 0.995452
upperback 18.9558 -6.5376 -3.74569
thorax 1.02675 -7.19693 -2.4019
lowerneck -24.7706 -13.2844 -7.33421
upperneck -12.1906 -18.3776 24.2304
head 3.34558 -9.93069 6.49294
rclavicle 7.63333e-014 9.93923e-015
rhumerus 8.91972 21.9838 -56.385
rradius 56.3649
rwrist -1.14847
rhand -13.2131 9.76267
rfingers 7.12502
rthumb 12.8877 -19.8194
lclavicle 7.63333e-014 9.93923e-015
lhumerus -169.547 -202.061 232.382
lradius 14.2422
lwrist 27.0574
lhand -24.1444 -0.650645
lfingers 7.12502
lthumb 2.3379 29.3163
rfemur -75.1448 -29.1303 29.88
rtibia 123.733
rfoot -26.6868 -6.47892
rtoes -10.343
lfemur -70.2139 2.9696 -14.906
ltibia 129.04
lfoot -28.0109 -24.6373
ltoes 14.4549
230
root 1.14522 8.80101 25.1159 -926.356 -38.2475 -887.838
lowerback 79.8276 6.27056 1.18791
upperback 19.1397 -6.5053 -3.70754
thorax 1.21837 -7.21508 -2.46304
lowerneck -24.7727 -13.2973 -7.45384
upperneck -12.0698 -18.369 24.2509
head 3.39603 -9.90247 6.51287
rclavicle -6.67916e-014 -5.1684e-015
rhumerus 9.17103 21.7615 -56.1459
rradius 55.951
rwrist -1.17289
rhand -13.3545 9.93256
rfingers 7.12502
rthumb 12.7514 -19.6581
lclavicle -6.67916e-014 -5.1684e-015
lhumerus -169.426 -203.19 232.996
lradius 14.1545
lwrist 27.3284
lhand -24.4372 -0.435709
lfingers 7.12502
lthumb 2.05508 29.5341
rfemur -75.4854 -29.6651 29.8571
rtibia 124.475
rfoot -26.668 -6.27304
rtoes -10.6958
lfemur -70.5511 3.22615 -15.0503
ltibia 129.945
lfoot -28.066 -24.5852
ltoes 15.0757
231
root 1.11417 8.69665 25.1411 -927.047 -38.0754 -887.428
lowerback 79.7356 6.19928 1.47034
upperback 19.2839 -6.44097 -3.66049
thorax 1.37124 -7.21235 -2.55656
lowerneck -24.6747 -13.3128 -7.58236
upperneck -12.0072 -18.3547 24.2868
head 3.41744 -9.88156 6.54626
rclavicle 6.36111e-015 -1.61413e-013
rhumerus 9.37214 21.5226 -55.9246
rradius 55.5835
rwrist -1.27298
rhand -13.4924 10.075
rfingers 7.12502
rthumb 12.6185 -19.5238
lclavicle 6.36111e-015 -1.61413e-013
lhumerus -169.249 -204.706 233.798
lradius 13.9885
lwrist 27.2132
lhand -24.7503 -0.499242
lfingers 7.12502
lthumb 1.75276 29.4733
rfemur -75.6886 -30.1076 29.9403
rtibia 125.117
rfoot -26.6399 -6.10555
rtoes -11.1308
lfemur -70.8054 3.58439 -15.0334
ltibia 130.793
lfoot -28.0943 -24.6202
ltoes 15.9215
232
root 1.08192 8.59856 25.1652 -927.709 -37.9123 -887.064
lowerback 79.6618 6.15629 1.71942
upperback 19.4192 -6.37354 -3.60183
thorax 1.52064 -7.21236 -2.62568
lowerneck -24.587 -13.3121 -7.69533
upperneck -11.9332 -18.3223 24.2981
head 3.43623 -9.85035 6.57287
rclavicle -1.33583e-013 -4.21423e-014
rhumerus 9.55418 21.3882 -55.6479
rradius 55.2991
rwrist -1.54744
rhand -13.7506 10.1521
rfingers 7.12502
rthumb 12.3696 -19.462
lclavicle -1.33583e-013 -4.21423e-014
lhumerus -169.031 -206.479 234.734
lradius 13.7653
lwrist 26.8802
lhand -24.9765 -0.857593
lfingers 7.12502
lthumb 1.53423 29.1166
rfemur -75.8237 -30.5853 29.957
rtibia 125.715
rfoot -26.6189 -5.88786
rtoes -11.5549
lfemur -71.0013 3.90783 -15.0681
ltibia 131.585
lfoot -28.1545 -24.5941
ltoes 16.6901
233
root 1.0478 8.50517 25.1906 -928.444 -37.7205 -886.637
lowerback 79.6432 6.08881 2.00859
upperback 19.52 -6.29817 -3.51681
thorax 1.63996 -7.21009 -2.67994
lowerneck -24.4706 -13.3299 -7.86827
upperneck -11.8344 -18.2977 24.3019
head 3.46396 -9.81714 6.60492
rclavicle 9.85972e-014 -1.19271e-015
rhumerus 9.61809 21.3319 -55.2957
rradius 55.1835
rwrist -1.92668
rhand -14.0129 10.174
rfingers 7.12502
rthumb 12.1167 -19.4552
lclavicle 9.85972e-014 -1.19271e-015
lhumerus -168.849 -208.371 235.765
lradius 13.4944
lwrist 26.4192
lhand -25.1628 -1.56408
lfingers 7.12502
lthumb 1.35437 28.4114
rfemur -75.8674 -31.0653 29.9939
rtibia 126.262
rfoot -26.6116 -5.66648
rtoes -11.9397
lfemur -71.1276 4.24112 -15.0609
ltibia 132.355
lfoot -28.1884 -24.5355
ltoes 17.377
